<svg xmlns="http://www.w3.org/2000/svg" xmlns:xlink="http://www.w3.org/1999/xlink" viewBox="0 0 929.49 576"><defs><style>.cls-1{fill:url(#linear-gradient);}</style><linearGradient id="linear-gradient" y1="288" x2="929.49" y2="288" gradientUnits="userSpaceOnUse"><stop offset="0" stop-color="#7900e9"/><stop offset="0.37" stop-color="#4958e9"/><stop offset="0.8" stop-color="#15b8e9"/><stop offset="1" stop-color="#00dfe9"/></linearGradient></defs><g id="Layer_2" data-name="Layer 2"><g id="Layer_1-2" data-name="Layer 1"><path class="cls-1" d="M477.6,576H196.8C62.4,576,0,524,0,412.8V163.2C0,52,62.4,0,196.8,0H477.6V154.4H230.4c-33.6,0-48.8,12.8-48.8,40V385.6c0,27.2,12,39.2,36.8,39.2H296V300c0-20,8.8-28.8,28.8-28.8l152.8.44ZM900.69,0H595.89V576h158.4c20,0,28.8-8.8,28.8-28.8V154.4h117.6c20,0,28.8-8.8,28.8-28.8V28.8C929.49,8.8,920.69,0,900.69,0Z"/></g></g></svg>